<svg width="158" height="158" viewBox="0 0 158 158" fill="none" xmlns="http://www.w3.org/2000/svg">
<path d="M79.2058 146.381C115.77 146.381 145.412 116.746 145.412 80.1904C145.412 43.6344 115.77 14 79.2058 14C42.6414 14 13 43.6344 13 80.1904C13 116.746 42.6414 146.381 79.2058 146.381Z" fill="url(#paint0_linear_0_1)"/>
<g clip-path="url(#clip0_0_1)">
<path d="M106.709 99.8664H102.382V77.7919C102.382 76.8913 101.649 76.1588 100.749 76.1588H87.3796V69.7941C87.3796 68.8936 86.647 68.161 85.7466 68.161H72.2534C71.3529 68.161 70.6204 68.8936 70.6204 69.7941V76.02C70.6204 76.5051 71.0136 76.8985 71.4989 76.8985C71.9842 76.8985 72.3775 76.5051 72.3775 76.02V69.918H85.6227V99.8666H72.3773V79.7639C72.3773 79.2787 71.9841 78.8854 71.4988 78.8854C71.0135 78.8854 70.6203 79.2787 70.6203 79.7639V82.9058H57.2509C56.3504 82.9058 55.6179 83.6383 55.6179 84.5389V99.8666H51.2912C50.0279 99.8666 49 100.894 49 102.158V108.086C49 108.571 49.3932 108.965 49.8785 108.965H108.121C108.607 108.965 109 108.571 109 108.086V102.158C109 100.894 107.972 99.8664 106.709 99.8664ZM57.375 84.6628H70.6203V99.8664H57.375V84.6628ZM107.243 107.208H50.7571V102.158C50.7571 101.863 50.9966 101.624 51.2912 101.624H92.5968C93.0821 101.624 93.4753 101.23 93.4753 100.745C93.4753 100.26 93.0821 99.8666 92.5968 99.8666H87.3797V77.9158H100.625V99.8666H96.3407C95.8554 99.8666 95.4622 100.26 95.4622 100.745C95.4622 101.23 95.8554 101.624 96.3407 101.624H106.709C107.004 101.624 107.243 101.863 107.243 102.158V107.208H107.243Z" fill="white"/>
<path d="M73.7759 59.7448L73.0795 63.8052C72.9778 64.3975 73.2166 64.9849 73.7028 65.3381C74.1889 65.6913 74.8212 65.7371 75.3535 65.4575L79.0001 63.5403L82.6467 65.4575C82.8781 65.579 83.1283 65.6391 83.3775 65.6391C83.7011 65.6391 84.0226 65.5377 84.2974 65.3381C84.7835 64.9848 85.0223 64.3975 84.9207 63.8052L84.2243 59.7447L87.1746 56.8689C87.6049 56.4495 87.7569 55.8339 87.5711 55.2624C87.3855 54.6909 86.9006 54.2821 86.3059 54.1957L82.2288 53.6033L80.4054 49.909C80.1395 49.37 79.601 49.0353 78.9999 49.0353C78.3989 49.0353 77.8603 49.37 77.5945 49.9089L75.7713 53.6033L71.6942 54.1957C71.0995 54.2821 70.6147 54.6909 70.429 55.2624C70.2432 55.8339 70.3953 56.4495 70.8255 56.8689L73.7759 59.7448ZM76.1227 55.3278C76.6332 55.2536 77.0744 54.933 77.3027 54.4704L78.9999 51.0314L80.6971 54.4704C80.9254 54.933 81.3667 55.2536 81.8773 55.3278L85.6724 55.8792L82.9262 58.5563C82.5567 58.9165 82.3881 59.4351 82.4754 59.9436L83.1236 63.7235L79.7292 61.939C79.2724 61.6986 78.727 61.6987 78.2704 61.9389L74.8759 63.7235L75.5242 59.9436C75.6114 59.4352 75.4429 58.9165 75.0734 58.5563L72.3271 55.8794L76.1227 55.3278Z" fill="white"/>
<path d="M91.7182 57.3373C91.7182 57.8224 92.1115 58.2158 92.5968 58.2158H93.8549C94.3402 58.2158 94.7335 57.8224 94.7335 57.3373C94.7335 56.8521 94.3402 56.4587 93.8549 56.4587H92.5968C92.1115 56.4587 91.7182 56.852 91.7182 57.3373Z" fill="white"/>
<path d="M91.0828 52.0786C91.2041 52.0786 91.3276 52.0533 91.4453 51.9999L92.591 51.4799C93.0328 51.2794 93.2284 50.7586 93.0279 50.3169C92.8274 49.8751 92.3066 49.6795 91.8648 49.8799L90.7191 50.3999C90.2774 50.6005 90.0817 51.1212 90.2823 51.563C90.4293 51.887 90.7486 52.0786 91.0828 52.0786Z" fill="white"/>
<path d="M90.7191 64.2745L91.8648 64.7945C91.9826 64.8479 92.106 64.8732 92.2273 64.8732C92.5615 64.8732 92.8808 64.6815 93.0279 64.3575C93.2284 63.9158 93.0328 63.395 92.591 63.1945L91.4453 62.6745C91.0033 62.4741 90.4826 62.6697 90.2823 63.1114C90.0817 63.5532 90.2774 64.0739 90.7191 64.2745Z" fill="white"/>
<path d="M64.2622 58.2158H65.5204C66.0057 58.2158 66.3989 57.8224 66.3989 57.3373C66.3989 56.8521 66.0057 56.4587 65.5204 56.4587H64.2622C63.7769 56.4587 63.3837 56.8521 63.3837 57.3373C63.3837 57.8224 63.7769 58.2158 64.2622 58.2158Z" fill="white"/>
<path d="M65.5261 51.4798L66.6718 51.9998C66.7897 52.0532 66.913 52.0785 67.0344 52.0785C67.3686 52.0785 67.6879 51.8869 67.8349 51.5629C68.0354 51.1211 67.8398 50.6003 67.3981 50.3998L66.2523 49.8798C65.8102 49.6793 65.2896 49.875 65.0893 50.3167C64.8888 50.7585 65.0844 51.2793 65.5261 51.4798Z" fill="white"/>
<path d="M66.6718 62.6745L65.5261 63.1945C65.0844 63.395 64.8888 63.9158 65.0893 64.3575C65.2363 64.6817 65.5556 64.8732 65.8898 64.8732C66.0112 64.8732 66.1346 64.8479 66.2523 64.7945L67.3981 64.2745C67.8398 64.0739 68.0354 63.5531 67.8349 63.1114C67.6345 62.6697 67.1138 62.4742 66.6718 62.6745Z" fill="white"/>
</g>
<path d="M79 157C122.078 157 157 122.078 157 79C157 35.9218 122.078 1 79 1C35.9218 1 1 35.9218 1 79C1 122.078 35.9218 157 79 157Z" stroke="#555555" stroke-width="1.5" stroke-dasharray="5 5"/>
<defs>
<linearGradient id="paint0_linear_0_1" x1="79.2058" y1="14" x2="79.2058" y2="146.381" gradientUnits="userSpaceOnUse">
<stop stop-color="#EF4B4F"/>
<stop offset="1" stop-color="#991F3D"/>
</linearGradient>
<clipPath id="clip0_0_1">
<rect width="60" height="60" fill="white" transform="translate(49 49)"/>
</clipPath>
</defs>
</svg>
