<svg width="76" height="82" viewBox="0 0 76 82" fill="none" xmlns="http://www.w3.org/2000/svg">
<g filter="url(#filter0_dd_1_29)">
<rect x="8" y="4" width="60" height="60" rx="12" fill="white"/>
</g>
<g clip-path="url(#clip0_1_29)">
<path d="M40.4919 16C40.1036 16 39.7888 16.3148 39.7888 16.7031C39.7888 17.0915 40.1036 17.4063 40.4919 17.4063C48.2678 17.4063 54.5937 23.7325 54.5937 31.508C54.5937 31.8964 54.9087 32.2112 55.2968 32.2112C55.6852 32.2112 56 31.8964 56 31.508C56 22.9571 49.0431 16 40.4919 16Z" fill="#F04C50"/>
<path d="M51.0671 32.2114C51.4555 32.2114 51.7702 31.8964 51.7702 31.5083C51.7702 25.2892 46.7107 20.2298 40.4919 20.2298C40.1036 20.2298 39.7888 20.5448 39.7888 20.9329C39.7888 21.3212 40.1036 21.636 40.4919 21.636C45.9354 21.636 50.364 26.0646 50.364 31.5083C50.364 31.8964 50.6787 32.2114 51.0671 32.2114Z" fill="#F04C50"/>
<path d="M46.1334 31.5083C46.1334 31.8964 46.4482 32.2114 46.8365 32.2114C47.2249 32.2114 47.5397 31.8964 47.5397 31.5083C47.5397 27.6222 44.3781 24.4606 40.4919 24.4606C40.1036 24.4606 39.7888 24.7753 39.7888 25.1634C39.7888 25.5518 40.1036 25.8666 40.4919 25.8666C43.6027 25.8666 46.1334 28.3973 46.1334 31.5083Z" fill="#F04C50"/>
<path d="M39.7888 29.3934C39.7888 29.7815 40.1036 30.0963 40.4919 30.0963C41.2703 30.0963 41.9037 30.7296 41.9037 31.5083C41.9037 31.8964 42.2184 32.2114 42.6068 32.2114C42.9949 32.2114 43.3099 31.8964 43.3099 31.5083C43.3099 29.9543 42.0457 28.6903 40.4919 28.6903C40.1036 28.6903 39.7888 29.0051 39.7888 29.3934Z" fill="#F04C50"/>
<path d="M33.1789 38.829C33.1789 39.2174 32.8641 39.5322 32.4758 39.5322C32.0874 39.5322 31.7727 39.2174 31.7727 38.829C31.7727 38.4409 32.0874 38.1259 32.4758 38.1259C32.8641 38.1259 33.1789 38.4409 33.1789 38.829Z" fill="#F04C50"/>
<path d="M39.2678 51.1463C42.4695 52.7155 46.3213 52.0626 48.8531 49.5308L50.3068 48.077C51.0962 47.2885 51.0965 46.0111 50.3071 45.222L44.6898 39.6052C43.9018 38.8161 42.6241 38.815 41.8353 39.6049L39.4485 41.992C38.9811 42.4595 38.2595 42.5548 37.7333 42.2189C36.8753 41.6704 36.0406 41.0656 35.2526 40.4212C34.9518 40.1754 34.5091 40.2199 34.2633 40.5204C34.0174 40.8211 34.0619 41.2642 34.3624 41.5097C35.1927 42.1886 36.0719 42.8259 36.9763 43.4037C38.0544 44.0923 39.5122 43.9168 40.4428 42.9863L42.8301 40.5989C43.0688 40.36 43.4555 40.3594 43.6953 40.5992L49.3129 46.2162C49.5521 46.4557 49.5526 46.843 49.3129 47.0822L47.8588 48.5365C45.7497 50.6456 42.5461 51.187 39.8866 49.8837C30.1437 45.1061 24.8428 37.5305 22.1116 32.0164C20.805 29.3794 21.3475 26.1879 23.4615 24.0744L24.8837 22.6525C25.1221 22.4136 25.5091 22.4127 25.7486 22.6528L31.3667 28.2706C31.6046 28.5082 31.607 28.8955 31.3662 29.1358L28.9794 31.5229C28.0488 32.4534 27.8733 33.9113 28.5619 34.9896C28.9676 35.6243 29.4048 36.2505 29.8619 36.8507C30.097 37.1597 30.5381 37.2193 30.8471 36.9842C31.1561 36.7491 31.2159 36.308 30.9805 35.9987C30.5471 35.4293 30.1319 34.835 29.7468 34.2326C29.4109 33.7061 29.5062 32.9846 29.9736 32.5171L32.3602 30.1306C33.1492 29.3426 33.1501 28.0646 32.3607 27.2761L26.7431 21.6588C25.9554 20.8697 24.6774 20.8686 23.8889 21.6585L22.4673 23.0802C19.9261 25.6205 19.2768 29.4627 20.8514 32.6407C23.6796 38.35 29.17 46.1948 39.2678 51.1463Z" fill="#F04C50"/>
</g>
<defs>
<filter id="filter0_dd_1_29" x="0" y="0" width="76" height="82" filterUnits="userSpaceOnUse" color-interpolation-filters="sRGB">
<feFlood flood-opacity="0" result="BackgroundImageFix"/>
<feColorMatrix in="SourceAlpha" type="matrix" values="0 0 0 0 0 0 0 0 0 0 0 0 0 0 0 0 0 0 127 0" result="hardAlpha"/>
<feOffset dy="10"/>
<feGaussianBlur stdDeviation="4"/>
<feComposite in2="hardAlpha" operator="out"/>
<feColorMatrix type="matrix" values="0 0 0 0 0 0 0 0 0 0 0 0 0 0 0 0 0 0 0.25 0"/>
<feBlend mode="normal" in2="BackgroundImageFix" result="effect1_dropShadow_1_29"/>
<feColorMatrix in="SourceAlpha" type="matrix" values="0 0 0 0 0 0 0 0 0 0 0 0 0 0 0 0 0 0 127 0" result="hardAlpha"/>
<feOffset/>
<feGaussianBlur stdDeviation="2"/>
<feComposite in2="hardAlpha" operator="out"/>
<feColorMatrix type="matrix" values="0 0 0 0 0 0 0 0 0 0 0 0 0 0 0 0 0 0 0.25 0"/>
<feBlend mode="normal" in2="effect1_dropShadow_1_29" result="effect2_dropShadow_1_29"/>
<feBlend mode="normal" in="SourceGraphic" in2="effect2_dropShadow_1_29" result="shape"/>
</filter>
<clipPath id="clip0_1_29">
<rect width="36" height="36" fill="white" transform="translate(20 16)"/>
</clipPath>
</defs>
</svg>
