<svg width="77" height="82" viewBox="0 0 77 82" fill="none" xmlns="http://www.w3.org/2000/svg">
<g filter="url(#filter0_dd_1_30)">
<rect x="8.73633" y="4" width="60" height="60" rx="12" fill="white"/>
</g>
<path d="M39.4801 36.395C38.1353 36.3888 36.7992 36.1781 35.5177 35.7701C33.4701 35.0851 31.9493 33.3517 31.5365 31.2324C31.0848 29.0567 31.908 26.7561 33.7945 24.9209C33.997 24.7237 34.2073 24.5349 34.4256 24.3543C36.3572 22.7372 38.9614 22.1752 41.3881 22.8518C43.7374 23.6016 45.3607 25.7486 45.4419 28.2133C45.5298 29.6321 45.0674 31.0301 44.1508 32.1166C43.4439 33.0071 42.2985 33.4277 41.1833 33.2063C40.7272 33.1117 40.3292 32.8355 40.0811 32.4413C39.8584 32.0584 39.8013 31.6013 39.9229 31.1754C40.4476 29.1921 40.981 26.1782 40.9863 26.1477C41.0236 25.9366 41.1706 25.7614 41.3721 25.6881C41.5736 25.6148 41.7988 25.6545 41.9631 25.7924C42.1273 25.9302 42.2055 26.1452 42.1682 26.3563C42.1459 26.4817 41.6207 29.4504 41.0831 31.4821C41.0448 31.5946 41.0544 31.718 41.1098 31.8233C41.1927 31.9381 41.3179 32.0152 41.4577 32.0377C42.1404 32.1517 42.8301 31.8778 43.2486 31.3265C43.9603 30.4749 44.317 29.382 44.2445 28.2746C44.1858 26.3127 42.8993 24.5999 41.0315 23.9969C38.9926 23.4361 36.8084 23.9152 35.1914 25.2778C34.9987 25.4378 34.8112 25.6053 34.6313 25.7805C33.6986 26.6877 32.2092 28.5703 32.7111 30.9881C33.0483 32.6773 34.2547 34.0616 35.8819 34.6266C38.6957 35.5242 42.7389 35.6322 44.8693 32.9834C45.0786 32.7313 45.4514 32.6938 45.7067 32.8991C45.9621 33.1043 46.0056 33.4765 45.8044 33.7351C44.2291 35.6941 41.8319 36.395 39.4801 36.395Z" fill="#F04C50" stroke="#F04C50" stroke-width="0.2"/>
<path d="M37.4269 33.2844C36.7927 33.2953 36.1742 33.0873 35.6754 32.6955C34.5238 31.7739 34.4922 30.1729 34.815 29.0826C34.9237 28.7195 35.0697 28.3686 35.2506 28.0356C35.7008 27.1273 36.4206 26.3803 37.3115 25.8968C38.4211 25.3211 39.7767 25.5394 40.6493 26.4343C41.0823 26.9088 41.4084 27.4706 41.6057 28.0819C41.7102 28.3921 41.5467 28.7288 41.2384 28.8386C40.93 28.9484 40.5906 28.7908 40.4755 28.4844C40.3332 28.0328 40.0968 27.6165 39.7818 27.2631C39.273 26.7428 38.4803 26.6244 37.8417 26.9733C37.1735 27.3502 36.6365 27.9223 36.3028 28.613C36.1625 28.8718 36.0492 29.1443 35.9647 29.4262C35.7315 30.2149 35.7828 31.2441 36.4261 31.7593C37.1295 32.3241 38.316 32.0853 38.9836 31.5094C39.4811 31.0615 39.9085 30.5415 40.2517 29.9667C40.3628 29.7805 40.5658 29.6688 40.7825 29.6744C40.9993 29.6801 41.1961 29.8023 41.2974 29.994C41.3987 30.1858 41.3886 30.4172 41.271 30.5994C40.8646 31.2767 40.3585 31.889 39.7699 32.4157C39.1139 32.9692 38.2852 33.2764 37.4269 33.2844Z" fill="#F04C50" stroke="#F04C50" stroke-width="0.2"/>
<path d="M54.9359 51.9998H22.5382C21.5446 51.9987 20.7394 51.1936 20.7383 50.2V28.0015C20.7383 27.7689 20.8728 27.5572 21.0834 27.4584C21.2941 27.3596 21.5428 27.3914 21.7217 27.5402L36.443 39.7748C37.775 40.8749 39.7004 40.8745 41.032 39.774L55.7518 27.5402C55.9307 27.3911 56.1797 27.3591 56.3905 27.4579C56.6013 27.5568 56.7359 27.7687 56.7358 28.0015V50.2C56.7347 51.1936 55.9295 51.9987 54.9359 51.9998ZM21.9382 29.2802V50.2C21.9386 50.5311 22.207 50.7995 22.5382 50.7999H54.9359C55.2671 50.7996 55.5355 50.5312 55.5358 50.2V29.2802L41.7981 40.6974C40.0218 42.1653 37.4536 42.1657 35.6769 40.6983L21.9382 29.2802Z" fill="#F04C50" stroke="#F04C50" stroke-width="0.2"/>
<path d="M21.3388 28.6014C21.0775 28.6016 20.8461 28.4327 20.7667 28.1837C20.6873 27.9347 20.7782 27.663 20.9914 27.5119L26.391 23.6842C26.6613 23.4968 27.0321 23.562 27.2223 23.8304C27.4125 24.0988 27.3511 24.4703 27.0847 24.6632L21.6851 28.4909C21.584 28.5629 21.4629 28.6015 21.3388 28.6014Z" fill="#F04C50" stroke="#F04C50" stroke-width="0.2"/>
<path d="M56.1355 28.6014C56.0115 28.6015 55.8904 28.5629 55.7893 28.4909L50.3897 24.6632C50.1233 24.4703 50.0619 24.0988 50.2521 23.8304C50.4422 23.562 50.813 23.4968 51.0834 23.6842L56.483 27.5119C56.6962 27.663 56.7871 27.9347 56.7077 28.1837C56.6283 28.4327 56.3969 28.6016 56.1355 28.6014Z" fill="#F04C50" stroke="#F04C50" stroke-width="0.2"/>
<path d="M44.2805 20.2021C44.1564 20.2022 44.0352 20.1636 43.934 20.0917L41.0662 18.0578C39.7349 16.9329 37.7896 16.9212 36.4449 18.03L33.5411 20.0918C33.3662 20.2158 33.1385 20.2371 32.9436 20.1476C32.7488 20.0582 32.6165 19.8716 32.5965 19.6581C32.5765 19.4447 32.672 19.2368 32.8469 19.1127L35.7147 17.0789C37.4867 15.63 40.0374 15.6415 41.7963 17.1064L44.6281 19.1125C44.8415 19.2636 44.9325 19.5354 44.8531 19.7845C44.7736 20.0336 44.542 20.2026 44.2805 20.2021Z" fill="#F04C50" stroke="#F04C50" stroke-width="0.2"/>
<path d="M21.7275 51.6758C21.4746 51.676 21.2488 51.5177 21.1628 51.28C21.0768 51.0422 21.149 50.776 21.3435 50.6144L35.0345 39.2392C35.199 39.0993 35.4261 39.0586 35.6289 39.1327C35.8318 39.2067 35.9792 39.3841 36.0149 39.5971C36.0506 39.8101 35.9691 40.0258 35.8015 40.162L22.1104 51.5372C22.0029 51.6268 21.8674 51.6758 21.7275 51.6758Z" fill="#F04C50" stroke="#F04C50" stroke-width="0.2"/>
<path d="M55.7444 51.6757C55.6046 51.6758 55.4692 51.6267 55.3618 51.5371L41.6708 40.1619C41.5032 40.0258 41.4217 39.81 41.4574 39.5971C41.4931 39.3841 41.6405 39.2067 41.8434 39.1327C42.0462 39.0586 42.2732 39.0993 42.4377 39.2392L56.1284 50.6144C56.3229 50.776 56.3952 51.0422 56.3091 51.2799C56.2231 51.5177 55.9973 51.6759 55.7444 51.6757Z" fill="#F04C50" stroke="#F04C50" stroke-width="0.2"/>
<path d="M50.736 33.0893C50.4046 33.0893 50.136 32.8207 50.136 32.4894V20.2069C50.1343 20.2195 50.1102 20.2025 50.07 20.2022H27.4036C27.3771 20.2006 27.3511 20.2099 27.3316 20.228L27.3376 32.4894C27.3376 32.8207 27.069 33.0893 26.7377 33.0893C26.4063 33.0893 26.1377 32.8207 26.1377 32.4894V20.2022C26.1571 19.5218 26.7231 18.9853 27.4036 19.0023H50.07C50.7505 18.9853 51.3165 19.5218 51.3359 20.2022V32.4894C51.3359 32.8207 51.0673 33.0893 50.736 33.0893Z" fill="#F04C50" stroke="#F04C50" stroke-width="0.2"/>
<defs>
<filter id="filter0_dd_1_30" x="0.736328" y="0" width="76" height="82" filterUnits="userSpaceOnUse" color-interpolation-filters="sRGB">
<feFlood flood-opacity="0" result="BackgroundImageFix"/>
<feColorMatrix in="SourceAlpha" type="matrix" values="0 0 0 0 0 0 0 0 0 0 0 0 0 0 0 0 0 0 127 0" result="hardAlpha"/>
<feOffset dy="10"/>
<feGaussianBlur stdDeviation="4"/>
<feComposite in2="hardAlpha" operator="out"/>
<feColorMatrix type="matrix" values="0 0 0 0 0 0 0 0 0 0 0 0 0 0 0 0 0 0 0.25 0"/>
<feBlend mode="normal" in2="BackgroundImageFix" result="effect1_dropShadow_1_30"/>
<feColorMatrix in="SourceAlpha" type="matrix" values="0 0 0 0 0 0 0 0 0 0 0 0 0 0 0 0 0 0 127 0" result="hardAlpha"/>
<feOffset/>
<feGaussianBlur stdDeviation="2"/>
<feComposite in2="hardAlpha" operator="out"/>
<feColorMatrix type="matrix" values="0 0 0 0 0 0 0 0 0 0 0 0 0 0 0 0 0 0 0.25 0"/>
<feBlend mode="normal" in2="effect1_dropShadow_1_30" result="effect2_dropShadow_1_30"/>
<feBlend mode="normal" in="SourceGraphic" in2="effect2_dropShadow_1_30" result="shape"/>
</filter>
</defs>
</svg>
