<svg width="80" height="81" viewBox="0 0 80 81" fill="none" xmlns="http://www.w3.org/2000/svg">
<g clip-path="url(#clip0_2302_15930)">
<path d="M11.8359 23.5759H29.8194C30.4666 23.5759 30.9912 23.0512 30.9912 22.404C30.9912 21.7568 30.4666 21.2321 29.8194 21.2321H11.8359C11.1887 21.2321 10.6641 21.7568 10.6641 22.404C10.6641 23.0512 11.1887 23.5759 11.8359 23.5759Z" fill="url(#paint0_linear_2302_15930)"/>
<path d="M11.8359 49.3572C11.1887 49.3572 10.6641 49.8819 10.6641 50.5291C10.6641 51.1762 11.1887 51.7009 11.8359 51.7009H31.3819C32.0291 51.7009 32.5537 51.1762 32.5537 50.5291C32.5537 49.8819 32.0291 49.3572 31.3819 49.3572H11.8359Z" fill="url(#paint1_linear_2302_15930)"/>
<path d="M46.9159 32.9509C47.5631 32.9509 48.0878 32.4262 48.0878 31.7791C48.0878 31.1319 47.5631 30.6072 46.9159 30.6072H34.0625C33.4153 30.6072 32.8906 31.1319 32.8906 31.7791C32.8906 32.4262 33.4153 32.9509 34.0625 32.9509H46.9159Z" fill="url(#paint2_linear_2302_15930)"/>
<path d="M11.5234 32.9509H28.5956C29.2428 32.9509 29.7675 32.4262 29.7675 31.7791C29.7675 31.1319 29.2428 30.6072 28.5956 30.6072H11.5234C10.8762 30.6072 10.3516 31.1319 10.3516 31.7791C10.3516 32.4262 10.8762 32.9509 11.5234 32.9509Z" fill="url(#paint3_linear_2302_15930)"/>
<path d="M11.5234 42.3259H39.0173C39.6645 42.3259 40.1892 41.8012 40.1892 41.1541C40.1892 40.5069 39.6645 39.9822 39.0173 39.9822H11.5234C10.8762 39.9822 10.3516 40.5069 10.3516 41.1541C10.3516 41.8012 10.8762 42.3259 11.5234 42.3259Z" fill="url(#paint4_linear_2302_15930)"/>
<path d="M11.5234 61.0759H34.3298C34.977 61.0759 35.5017 60.5512 35.5017 59.9041C35.5017 59.2569 34.977 58.7322 34.3298 58.7322H11.5234C10.8762 58.7322 10.3516 59.2569 10.3516 59.9041C10.3516 60.5512 10.8762 61.0759 11.5234 61.0759Z" fill="url(#paint5_linear_2302_15930)"/>
<path d="M79.9878 67.8287C79.9102 66.7457 79.4133 65.1518 77.4884 63.7022L67.3016 55.649L69.6177 53.3341C70.0623 53.5468 70.5611 53.6626 71.087 53.6627H71.0884C72.2003 53.6627 73.3313 53.1668 74.1914 52.3021C74.1941 52.2994 74.1967 52.2966 74.1994 52.2938C75.803 50.6747 75.9902 48.2344 74.6147 46.849L62.6783 34.8493C61.6116 33.7413 59.7855 33.6597 58.4372 34.3899V24.218C58.4372 22.6533 57.8219 21.1821 56.7045 20.0755L38.7233 2.26584C37.6067 1.1599 36.1219 0.550842 34.5422 0.550842H7.49234C3.36109 0.550842 0 3.87881 0 7.96928V12.3138C0 12.961 0.524687 13.4857 1.17188 13.4857C1.81906 13.4857 2.34375 12.961 2.34375 12.3138V7.96928C2.34375 5.171 4.65344 2.89444 7.49234 2.89444L35.3378 2.98756V18.0477C35.3378 21.0277 37.7803 23.4521 40.7827 23.4521H56.0061L56.0938 37.1324C55.7875 38.0877 55.8302 39.0866 56.2373 39.9132L45.6555 50.4896C44.2594 49.814 42.38 50.176 41.0525 51.4971C39.5539 52.9379 39.1261 55.4622 40.6222 56.9521L52.5928 68.9205C53.4977 69.833 54.8838 70.0415 56.0938 69.6694C56.1931 71.2271 55.7512 72.7858 54.5998 73.8933C53.6147 74.8715 52.3047 75.4105 50.903 75.3944L48.5033 75.3773C47.9589 74.2962 46.9719 73.4751 45.7811 73.154V72.1619C45.7811 69.7926 43.8536 67.8651 41.4842 67.8651H27.0552C24.6858 67.8651 22.7583 69.7926 22.7583 72.1619V73.154C21.6331 73.4574 20.6898 74.2071 20.13 75.201H7.49234C4.65344 75.201 2.34375 72.9244 2.34375 70.1262V17.7785C2.34375 17.1313 1.81906 16.6066 1.17188 16.6066C0.524687 16.6066 0 17.1313 0 17.7785V70.1262C0 74.2168 3.36109 77.5447 7.49234 77.5447H19.5791V78.5838C19.5791 79.6608 20.4552 80.5369 21.5322 80.5369H26.875C27.5222 80.5369 28.0469 80.0122 28.0469 79.3651C28.0469 78.7179 27.5222 78.1932 26.875 78.1932H21.9228V77.3026C21.9228 76.2255 22.7989 75.3494 23.8759 75.3494H44.6637C45.7408 75.3494 46.6169 76.2255 46.6169 77.3026V78.1932H32.3438C31.6966 78.1932 31.1719 78.7179 31.1719 79.3651C31.1719 80.0122 31.6966 80.5369 32.3438 80.5369H47.0075C48.0845 80.5369 48.9606 79.6608 48.9606 78.5838V77.7243C49.0294 77.7246 50.8744 77.7385 50.9423 77.7382C52.9492 77.7382 54.833 76.9646 56.2513 75.5563C57.6611 74.1566 58.4375 72.2972 58.4375 70.321V68.0435C59.3723 66.8515 59.7105 65.2312 59.0564 63.8901L61.3062 61.6413L69.3434 71.8597C72.2253 75.3619 75.1586 75.0096 78.0367 72.4091C79.408 71.0348 80.1009 69.4079 79.9878 67.8287ZM27.0553 70.2088H41.4844C42.5614 70.2088 43.4375 71.0849 43.4375 72.1619V73.0057H25.1022V72.1619C25.1022 71.0849 25.9783 70.2088 27.0553 70.2088ZM58.8989 36.9237C59.5117 36.3594 60.3266 35.9612 61.0161 36.5013L72.9525 48.501C73.4086 48.9604 73.2114 49.9638 72.5306 50.6483C71.9003 51.2421 70.9734 51.656 70.3181 50.9768L65.8969 46.5321C65.4405 46.0733 64.6984 46.0713 64.2397 46.5277C63.7808 46.9841 63.7789 47.7262 64.2353 48.1849L67.8344 51.8032C64.7322 54.9005 60.6234 59.0099 57.5222 62.1102L47.4348 52.0249L57.7748 41.6902L60.3473 44.2765C60.8037 44.7354 61.5458 44.7374 62.0045 44.2808C62.4634 43.8244 62.4653 43.0824 62.0089 42.6237L58.6059 39.2027C57.9837 38.7129 58.1663 37.6818 58.8989 36.9237ZM37.6816 18.0479V4.53272L54.4172 21.1085H40.7827C39.0727 21.1085 37.6816 19.7355 37.6816 18.0479ZM54.2492 67.2621L42.2786 55.2937C41.7406 54.6029 42.1341 53.7847 42.6947 53.1693C43.4389 52.4397 44.4667 52.2477 44.9487 52.853L56.805 64.7069C57.345 65.3996 56.9464 66.2241 56.382 66.8382C55.7013 67.5187 54.7044 67.7165 54.2492 67.2621ZM76.3773 70.7543C74.6028 72.5283 72.6834 72.4801 71.1945 70.4222L62.9758 59.973L65.6327 57.3174L76.0461 65.5499C78.1012 67.044 78.1484 68.9751 76.3773 70.7543Z" fill="url(#paint6_linear_2302_15930)"/>
</g>
<defs>
<linearGradient id="paint0_linear_2302_15930" x1="10.6641" y1="22.404" x2="30.9912" y2="22.404" gradientUnits="userSpaceOnUse">
<stop stop-color="#991F3D"/>
<stop offset="1" stop-color="#E7474D"/>
</linearGradient>
<linearGradient id="paint1_linear_2302_15930" x1="10.6641" y1="50.5291" x2="32.5537" y2="50.5291" gradientUnits="userSpaceOnUse">
<stop stop-color="#991F3D"/>
<stop offset="1" stop-color="#E7474D"/>
</linearGradient>
<linearGradient id="paint2_linear_2302_15930" x1="32.8906" y1="31.7791" x2="48.0878" y2="31.7791" gradientUnits="userSpaceOnUse">
<stop stop-color="#991F3D"/>
<stop offset="1" stop-color="#E7474D"/>
</linearGradient>
<linearGradient id="paint3_linear_2302_15930" x1="10.3516" y1="31.7791" x2="29.7675" y2="31.7791" gradientUnits="userSpaceOnUse">
<stop stop-color="#991F3D"/>
<stop offset="1" stop-color="#E7474D"/>
</linearGradient>
<linearGradient id="paint4_linear_2302_15930" x1="10.3516" y1="41.1541" x2="40.1892" y2="41.1541" gradientUnits="userSpaceOnUse">
<stop stop-color="#991F3D"/>
<stop offset="1" stop-color="#E7474D"/>
</linearGradient>
<linearGradient id="paint5_linear_2302_15930" x1="10.3516" y1="59.9041" x2="35.5017" y2="59.9041" gradientUnits="userSpaceOnUse">
<stop stop-color="#991F3D"/>
<stop offset="1" stop-color="#E7474D"/>
</linearGradient>
<linearGradient id="paint6_linear_2302_15930" x1="0" y1="40.5439" x2="79.9998" y2="40.5439" gradientUnits="userSpaceOnUse">
<stop stop-color="#991F3D"/>
<stop offset="1" stop-color="#E7474D"/>
</linearGradient>
<clipPath id="clip0_2302_15930">
<rect width="80" height="80" fill="white" transform="translate(0 0.543945)"/>
</clipPath>
</defs>
</svg>
