<svg width="80" height="81" viewBox="0 0 80 81" fill="none" xmlns="http://www.w3.org/2000/svg">
<path d="M8.74984 59.2694H15.0136C16.392 59.2694 17.5136 58.1479 17.5136 56.7694V32.5794C17.5136 31.201 16.392 30.0794 15.0136 30.0794H8.74984C7.37141 30.0794 6.25 31.2008 6.25 32.5794V56.7694C6.25 58.1479 7.37125 59.2694 8.74984 59.2694ZM8.125 32.5794C8.125 32.2347 8.40531 31.9544 8.74984 31.9544H15.0136C15.3583 31.9544 15.6386 32.2347 15.6386 32.5794V56.7694C15.6386 57.1141 15.3583 57.3944 15.0136 57.3944H8.74984C8.40531 57.3944 8.125 57.1141 8.125 56.7694V32.5794ZM23.3894 18.8016C22.0109 18.8016 20.8895 19.923 20.8895 21.3016V56.7694C20.8895 58.1479 22.0109 59.2694 23.3894 59.2694H29.6531C31.0316 59.2694 32.153 58.1479 32.153 56.7694V21.3016C32.153 19.9232 31.0316 18.8016 29.6531 18.8016H23.3894ZM30.278 21.3016V56.7694C30.278 57.1141 29.9977 57.3944 29.6531 57.3944H23.3894C23.0448 57.3944 22.7645 57.1141 22.7645 56.7694V21.3016C22.7645 20.9569 23.0448 20.6766 23.3894 20.6766H29.6531C29.9977 20.6766 30.278 20.9569 30.278 21.3016ZM11.8817 23.3593C14.0167 23.3593 15.7537 21.6222 15.7537 19.4872C15.7537 19.0149 15.6684 18.5621 15.5128 18.1432L23.9494 12.383C24.6338 12.9925 25.5347 13.3639 26.5212 13.3639C27.8361 13.3639 28.9991 12.7047 29.6992 11.7L37.3164 14.5893C37.2989 14.7388 37.2887 14.8907 37.2887 15.0449C37.2887 17.1799 39.0258 18.9169 41.1608 18.9169C43.2958 18.9169 45.0328 17.1799 45.0328 15.0449C45.0328 14.5043 44.9211 13.9893 44.72 13.5214L54.532 6.07786L54.3961 6.98614C54.3194 7.49817 54.6723 7.97551 55.1844 8.05207C55.6955 8.12958 56.1737 7.77598 56.2503 7.26379L56.7275 4.07786C56.8042 3.56582 56.4512 3.08848 55.9392 3.01192L52.7533 2.53473C52.2411 2.45817 51.7639 2.81098 51.6873 3.32301C51.6106 3.83504 51.9636 4.31239 52.4756 4.38895L53.4614 4.53661L43.5852 12.0288C42.9211 11.4938 42.078 11.1727 41.1608 11.1727C39.8461 11.1727 38.683 11.8319 37.9828 12.8366L30.3656 9.94739C30.3833 9.79786 30.3933 9.64614 30.3933 9.49192C30.3933 7.35692 28.6562 5.61989 26.5212 5.61989C24.3862 5.61989 22.6494 7.35692 22.6494 9.49192C22.6494 9.96426 22.7347 10.4169 22.8903 10.8358L14.4537 16.596C13.7692 15.9864 12.8683 15.615 11.8819 15.615C9.74687 15.615 8.01 17.3521 8.01 19.4871C8.01 21.6221 9.74672 23.3593 11.8817 23.3593ZM41.1608 13.0479C42.262 13.0479 43.1578 13.9436 43.1578 15.0449C43.1578 16.146 42.262 17.0419 41.1608 17.0419C40.0595 17.0419 39.1637 16.1461 39.1637 15.0449C39.1637 13.9438 40.0595 13.0479 41.1608 13.0479ZM26.5212 7.49504C27.6225 7.49504 28.5183 8.39082 28.5183 9.49207C28.5183 10.5933 27.6225 11.4891 26.5212 11.4891C25.4202 11.4891 24.5244 10.5933 24.5244 9.49207C24.5244 8.39082 25.4202 7.49504 26.5212 7.49504ZM11.8817 17.4902C12.983 17.4902 13.8787 18.386 13.8787 19.4872C13.8787 20.5885 12.983 21.4843 11.8817 21.4843C10.7806 21.4843 9.88484 20.5885 9.88484 19.4872C9.88484 18.386 10.7806 17.4902 11.8817 17.4902ZM77.3794 73.2185L70.2706 66.1096C70.0948 65.9336 69.8566 65.8349 69.6078 65.8349C69.3592 65.8349 69.1208 65.9336 68.945 66.1096L68.9113 66.1433L65.4555 62.6875C66.8827 60.553 67.7169 57.9899 67.7169 55.235C67.7169 50.4525 65.2045 46.248 61.4323 43.8644V15.0361C61.4323 13.6577 60.3108 12.5361 58.9323 12.5361H52.6686C51.2902 12.5361 50.1686 13.6575 50.1686 15.0361V42.4338C48.9605 42.8221 47.8256 43.3755 46.7927 44.0699V27.5671C46.7927 26.1886 45.6712 25.0671 44.2928 25.0671H38.0291C36.6506 25.0671 35.5291 26.1885 35.5291 27.5671V56.7694C35.5291 58.1479 36.6506 59.2694 38.0291 59.2694H41.4481C41.7609 60.2616 42.1872 61.2033 42.7094 62.0819H3.4375V3.46207C3.4375 2.94442 3.01766 2.52457 2.5 2.52457C1.98234 2.52457 1.5625 2.94442 1.5625 3.46207V63.0194C1.5625 63.5371 1.98234 63.9569 2.5 63.9569H44.0544C46.522 66.8438 50.1861 68.6789 54.2727 68.6789C57.0275 68.6789 59.5908 67.8449 61.7253 66.4175L65.1813 69.8733L65.1475 69.9071C64.7812 70.2732 64.7812 70.8668 65.1475 71.2327L72.2564 78.3416C72.9627 79.048 73.8902 79.401 74.818 79.401C75.7458 79.401 76.6733 79.0479 77.3795 78.3416C78.7919 76.9293 78.7919 74.6308 77.3794 73.2185ZM52.0436 15.0361C52.0436 14.6914 52.3239 14.4111 52.6686 14.4111H58.9323C59.277 14.4111 59.5573 14.6914 59.5573 15.0361V42.8746C57.9342 42.178 56.1481 41.7908 54.2728 41.7908C53.5133 41.7908 52.7692 41.8574 52.0436 41.9791V15.0361ZM38.0289 57.3944C37.6842 57.3944 37.4039 57.1141 37.4039 56.7694V27.5671C37.4039 27.2224 37.6842 26.9421 38.0289 26.9421H44.2927C44.6372 26.9421 44.9175 27.2224 44.9175 27.5671V45.5932C42.3984 48.038 40.8286 51.4557 40.8286 55.235C40.8286 55.9702 40.8903 56.691 41.0044 57.3944H38.0289ZM42.7036 55.2349C42.7036 48.8557 47.8934 43.6658 54.2727 43.6658C60.6519 43.6658 65.8417 48.8557 65.8417 55.2349C65.8417 61.6139 60.6519 66.8038 54.2727 66.8038C47.8934 66.8038 42.7036 61.6139 42.7036 55.2349ZM63.2184 65.2593C63.598 64.9202 63.9581 64.5602 64.2972 64.1805L67.5855 67.4688L66.5069 68.5474L63.2184 65.2593ZM76.0537 77.016C75.7256 77.3439 75.2869 77.5246 74.818 77.5246C74.3491 77.5246 73.9102 77.3439 73.5822 77.016L67.1362 70.5699L69.6078 68.0983L76.0537 74.5443C76.735 75.2257 76.735 76.3344 76.0537 77.016ZM54.2727 44.9043C48.5764 44.9043 43.9422 49.5385 43.9422 55.2349C43.9422 60.9313 48.5764 65.5655 54.2727 65.5655C59.9691 65.5655 64.6033 60.9313 64.6033 55.2349C64.6033 49.5385 59.9691 44.9043 54.2727 44.9043ZM54.2727 63.6905C49.6103 63.6905 45.8172 59.8974 45.8172 55.2349C45.8172 50.5724 49.6103 46.7793 54.2727 46.7793C58.9352 46.7793 62.7283 50.5724 62.7283 55.2349C62.7283 59.8974 58.9352 63.6905 54.2727 63.6905Z" fill="url(#paint0_linear_2302_15924)"/>
<defs>
<linearGradient id="paint0_linear_2302_15924" x1="1.5625" y1="40.9626" x2="78.4388" y2="40.9626" gradientUnits="userSpaceOnUse">
<stop stop-color="#991F3D"/>
<stop offset="1" stop-color="#E7474D"/>
</linearGradient>
</defs>
</svg>
