<svg width="80" height="80" viewBox="0 0 80 80" fill="none" xmlns="http://www.w3.org/2000/svg">
<path d="M44.6984 6.85935H41.6047C41.0406 3.86873 38.4094 1.59998 35.2586 1.59998C32.1156 1.59998 29.4906 3.86873 28.9281 6.85935H25.8352C24.0547 6.85935 22.6055 8.30778 22.6055 10.089V11.1281H13.5883C10.2266 11.1281 7.49219 13.8625 7.49219 17.225V59.4C7.49219 60.0625 8.02969 60.6 8.69219 60.6C9.35468 60.6 9.89219 60.0625 9.89219 59.4V17.225C9.89219 15.1859 11.55 13.5281 13.5883 13.5281H22.6055V15.2531C22.6055 17.0343 24.0547 18.4828 25.8351 18.4828H44.9867C46.6086 18.4828 47.9281 17.1625 47.9281 15.5406V13.5281H55.7477C57.7859 13.5281 59.4438 15.1859 59.4438 17.225V20.6969C59.4438 21.3594 59.9813 21.8969 60.6438 21.8969C61.3063 21.8969 61.8438 21.3594 61.8438 20.6969V17.225C61.8438 13.8625 59.1094 11.1281 55.7477 11.1281H47.9281V10.089C47.9281 8.30778 46.4797 6.85935 44.6984 6.85935ZM44.9867 16.0828H25.8352C25.3774 16.0828 25.0055 15.7109 25.0055 15.2531C25.0055 14.8333 25.0055 9.92476 25.0055 10.089C25.0055 9.63124 25.3774 9.25937 25.8352 9.25937H30.0164C30.6789 9.25937 31.2164 8.72186 31.2164 8.05937C31.2164 5.82031 33.0297 3.99999 35.2586 3.99999C37.4961 3.99999 39.3164 5.82031 39.3164 8.05937C39.3164 8.72186 39.8539 9.25937 40.5164 9.25937H44.6984C45.1563 9.25937 45.5281 9.63124 45.5281 10.089C45.5281 10.3266 45.5281 15.8104 45.5281 15.5406C45.5281 15.839 45.2852 16.0828 44.9867 16.0828Z" fill="url(#paint0_linear_2896_2708)"/>
<path d="M35.2703 6.31873C34.3031 6.31873 33.5156 7.10623 33.5156 8.07341C33.5156 9.0406 34.3031 9.8281 35.2703 9.8281C36.2383 9.8281 37.0258 9.0406 37.0258 8.07341C37.0258 7.10623 36.2383 6.31873 35.2703 6.31873Z" fill="url(#paint1_linear_2896_2708)"/>
<path d="M51.2445 26.6984H30.4031C29.7406 26.6984 29.2031 27.2359 29.2031 27.8984C29.2031 28.5609 29.7406 29.0984 30.4031 29.0984H51.2445C51.907 29.0984 52.4445 28.5609 52.4445 27.8984C52.4445 27.2359 51.907 26.6984 51.2445 26.6984Z" fill="url(#paint2_linear_2896_2708)"/>
<path d="M51.2445 38.7156H30.4031C29.7406 38.7156 29.2031 39.2531 29.2031 39.9156C29.2031 40.5781 29.7406 41.1156 30.4031 41.1156H51.2445C51.907 41.1156 52.4445 40.5781 52.4445 39.9156C52.4445 39.2531 51.907 38.7156 51.2445 38.7156Z" fill="url(#paint3_linear_2896_2708)"/>
<path d="M72.5102 63.1547C72.5102 56.3437 68.0194 50.5639 61.8438 48.6145V26.664C61.8438 26.0016 61.3063 25.4641 60.6438 25.4641C59.9813 25.4641 59.4438 26.0016 59.4438 26.664V48.0836C58.7299 47.9807 58.0059 47.9094 57.2641 47.9094C53.9848 47.9094 50.9522 48.96 48.4629 50.7281H30.4039C29.7414 50.7281 29.2039 51.2656 29.2039 51.9281C29.2039 52.5906 29.7414 53.1281 30.4039 53.1281H45.808C43.5408 55.7149 42.1371 59.0667 42.0387 62.7453H30.4039C29.7414 62.7453 29.2039 63.2828 29.2039 63.9453C29.2039 64.6078 29.7414 65.1453 30.4039 65.1453H42.1633C42.7613 69.6994 45.3695 73.6209 49.0735 75.9922H13.5883C11.55 75.9922 9.89219 74.3344 9.89219 72.2969V65.7203C9.89219 65.0578 9.35468 64.5203 8.69219 64.5203C8.02969 64.5203 7.49219 65.0578 7.49219 65.7203V72.2969C7.49219 75.6578 10.2266 78.3922 13.5883 78.3922C13.7896 78.3922 50.1187 78.4 57.2641 78.4C65.6711 78.4 72.5102 71.5609 72.5102 63.1547ZM57.2641 76C50.1805 76 44.418 70.2375 44.418 63.1547C44.418 56.0719 50.1805 50.3094 57.2641 50.3094C64.3477 50.3094 70.1102 56.0719 70.1102 63.1547C70.1102 70.2375 64.3477 76 57.2641 76Z" fill="url(#paint4_linear_2896_2708)"/>
<path d="M57.2664 58.2703C58.2781 58.2703 59.1016 59.0937 59.1016 60.1047C59.1016 60.7671 59.6391 61.3047 60.3016 61.3047C60.964 61.3047 61.5016 60.7671 61.5016 60.1047C61.5016 58.1897 60.2148 56.586 58.4664 56.0646V55.1125C58.4664 54.45 57.9289 53.9125 57.2664 53.9125C56.6039 53.9125 56.0664 54.45 56.0664 55.1125V56.0646C54.318 56.586 53.0312 58.1897 53.0312 60.1047C53.0312 62.4406 54.9312 64.3406 57.2664 64.3406C58.2781 64.3406 59.1016 65.164 59.1016 66.175C59.1016 67.1875 58.2781 68.0109 57.2664 68.0109C56.2547 68.0109 55.4313 67.1875 55.4313 66.175C55.4313 65.5125 54.8937 64.975 54.2313 64.975C53.5688 64.975 53.0312 65.5125 53.0312 66.175C53.0312 68.0912 54.318 69.6952 56.0664 70.2166V71.1968C56.0664 71.8593 56.6039 72.3968 57.2664 72.3968C57.9289 72.3968 58.4664 71.8593 58.4664 71.1968V70.2166C60.2148 69.6952 61.5016 68.0912 61.5016 66.175C61.5016 63.8406 59.6016 61.9406 57.2664 61.9406C56.2547 61.9406 55.4313 61.1171 55.4313 60.1047C55.4312 59.0937 56.2547 58.2703 57.2664 58.2703Z" fill="url(#paint5_linear_2896_2708)"/>
<path d="M23.5844 25.2703C23.1156 24.8015 22.3563 24.8015 21.8875 25.2703L19.1758 27.9828L18.2438 27.0499C17.775 26.5812 17.0156 26.5812 16.5469 27.0499C16.0781 27.5187 16.0781 28.2781 16.5469 28.7468L18.3273 30.5281C18.798 30.9987 19.5576 30.9947 20.0242 30.5281L23.5844 26.9671C24.0531 26.4984 24.0531 25.739 23.5844 25.2703Z" fill="url(#paint6_linear_2896_2708)"/>
<path d="M23.5844 37.2859C23.1156 36.8171 22.3563 36.8171 21.8875 37.2859L19.1758 39.9984L18.2438 39.0671C17.775 38.5984 17.0156 38.5984 16.5469 39.0671C16.0781 39.5359 16.0781 40.2953 16.5469 40.764L18.3273 42.5437C18.7961 43.0124 19.5555 43.0125 20.0242 42.5437L23.5844 38.9828C24.0531 38.514 24.0531 37.7546 23.5844 37.2859Z" fill="url(#paint7_linear_2896_2708)"/>
<path d="M23.5844 49.3031C23.1156 48.8344 22.3563 48.8344 21.8875 49.3031L19.1758 52.014L18.2438 51.0828C17.775 50.614 17.0156 50.614 16.5469 51.0828C16.0781 51.5516 16.0781 52.3109 16.5469 52.7797L18.3273 54.5594C18.7961 55.0281 19.5555 55.0281 20.0242 54.5594L23.5844 51C24.0531 50.5312 24.0531 49.7719 23.5844 49.3031Z" fill="url(#paint8_linear_2896_2708)"/>
<path d="M21.8875 61.3187L19.1758 64.0312L18.2438 63.0984C17.775 62.6297 17.0156 62.6297 16.5469 63.0984C16.0781 63.5672 16.0781 64.3265 16.5469 64.7953L18.3273 66.5765C18.798 67.0472 19.5576 67.0432 20.0242 66.5765L23.5844 63.0156C24.0531 62.5468 24.0531 61.7875 23.5844 61.3187C23.1156 60.85 22.3563 60.85 21.8875 61.3187Z" fill="url(#paint9_linear_2896_2708)"/>
<defs>
<linearGradient id="paint0_linear_2896_2708" x1="7.49219" y1="31.1" x2="61.8438" y2="31.1" gradientUnits="userSpaceOnUse">
<stop stop-color="#991F3D"/>
<stop offset="1" stop-color="#E7474D"/>
</linearGradient>
<linearGradient id="paint1_linear_2896_2708" x1="33.5156" y1="8.07341" x2="37.0258" y2="8.07341" gradientUnits="userSpaceOnUse">
<stop stop-color="#991F3D"/>
<stop offset="1" stop-color="#E7474D"/>
</linearGradient>
<linearGradient id="paint2_linear_2896_2708" x1="29.2031" y1="27.8984" x2="52.4445" y2="27.8984" gradientUnits="userSpaceOnUse">
<stop stop-color="#991F3D"/>
<stop offset="1" stop-color="#E7474D"/>
</linearGradient>
<linearGradient id="paint3_linear_2896_2708" x1="29.2031" y1="39.9156" x2="52.4445" y2="39.9156" gradientUnits="userSpaceOnUse">
<stop stop-color="#991F3D"/>
<stop offset="1" stop-color="#E7474D"/>
</linearGradient>
<linearGradient id="paint4_linear_2896_2708" x1="7.49219" y1="51.932" x2="72.5102" y2="51.932" gradientUnits="userSpaceOnUse">
<stop stop-color="#991F3D"/>
<stop offset="1" stop-color="#E7474D"/>
</linearGradient>
<linearGradient id="paint5_linear_2896_2708" x1="53.0312" y1="63.1547" x2="61.5016" y2="63.1547" gradientUnits="userSpaceOnUse">
<stop stop-color="#991F3D"/>
<stop offset="1" stop-color="#E7474D"/>
</linearGradient>
<linearGradient id="paint6_linear_2896_2708" x1="16.1953" y1="27.8991" x2="23.9359" y2="27.8991" gradientUnits="userSpaceOnUse">
<stop stop-color="#991F3D"/>
<stop offset="1" stop-color="#E7474D"/>
</linearGradient>
<linearGradient id="paint7_linear_2896_2708" x1="16.1953" y1="39.9148" x2="23.9359" y2="39.9148" gradientUnits="userSpaceOnUse">
<stop stop-color="#991F3D"/>
<stop offset="1" stop-color="#E7474D"/>
</linearGradient>
<linearGradient id="paint8_linear_2896_2708" x1="16.1953" y1="51.9312" x2="23.9359" y2="51.9312" gradientUnits="userSpaceOnUse">
<stop stop-color="#991F3D"/>
<stop offset="1" stop-color="#E7474D"/>
</linearGradient>
<linearGradient id="paint9_linear_2896_2708" x1="16.1953" y1="63.9476" x2="23.9359" y2="63.9476" gradientUnits="userSpaceOnUse">
<stop stop-color="#991F3D"/>
<stop offset="1" stop-color="#E7474D"/>
</linearGradient>
</defs>
</svg>
