<svg width="80" height="81" viewBox="0 0 80 81" fill="none" xmlns="http://www.w3.org/2000/svg">
<path d="M17.4416 37.7203H27.8274C29.656 37.7203 31.144 36.2323 31.144 34.403V22.9193C31.144 21.0907 29.656 19.6027 27.8274 19.6027H17.4416C15.613 19.6027 14.125 21.0907 14.125 22.9193V34.403C14.125 36.2323 15.613 37.7203 17.4416 37.7203ZM16.625 22.9193C16.625 22.4768 16.9985 22.1027 17.4416 22.1027H27.8274C28.2705 22.1027 28.644 22.4768 28.644 22.9193V34.403C28.644 34.8462 28.2705 35.2203 27.8274 35.2203H17.4416C16.9985 35.2203 16.625 34.8462 16.625 34.403V22.9193Z" fill="url(#paint0_linear_2896_2676)"/>
<path d="M35.4297 22.6752H49.3457C50.0366 22.6752 50.5957 22.1154 50.5957 21.4252C50.5957 20.7349 50.0366 20.1752 49.3457 20.1752H35.4297C34.7388 20.1752 34.1797 20.7349 34.1797 21.4252C34.1797 22.1154 34.7388 22.6752 35.4297 22.6752Z" fill="url(#paint1_linear_2896_2676)"/>
<path d="M35.4297 30.1979H49.3457C50.0366 30.1979 50.5957 29.6381 50.5957 28.9479C50.5957 28.2576 50.0366 27.6979 49.3457 27.6979H35.4297C34.7388 27.6979 34.1797 28.2576 34.1797 28.9479C34.1797 29.6381 34.7388 30.1979 35.4297 30.1979Z" fill="url(#paint2_linear_2896_2676)"/>
<path d="M78.3252 71.2293L70.9375 61.7798C70.6079 61.3575 70.133 61.089 69.5996 61.0236C69.0638 60.9583 68.5389 61.1036 68.1178 61.4337L67.0346 62.2811L65.5762 60.4176C68.4587 57.4536 70.1257 53.5885 70.259 49.4281C70.4019 45.0061 68.8136 40.7947 65.7876 37.5683C63.2603 34.8746 60.0341 33.234 56.6506 32.6263V12.4335C56.6506 10.3467 54.9526 8.64933 52.8665 8.64933H50.2188V6.22871C50.2188 4.14196 48.5208 2.44458 46.4346 2.44458H5.03412C2.948 2.44446 1.25 4.14183 1.25 6.22871V59.9427C1.25 62.0295 2.948 63.7268 5.03412 63.7268H7.68188V66.1517C7.68188 68.2361 9.37988 69.9316 11.466 69.9316H52.8662C54.9524 69.9316 56.6504 68.2361 56.6504 66.1517V65.1912C59.2116 64.7341 61.6178 63.6742 63.7078 62.0853L65.0661 63.8208L63.9794 64.671C63.109 65.3515 62.9528 66.6137 63.6339 67.4865L71.0265 76.9377C71.422 77.4418 72.0129 77.7061 72.6097 77.7056C73.0406 77.7056 73.4765 77.5671 73.8415 77.2813L77.9785 74.0446C78.8501 73.3643 79.0064 72.1015 78.3252 71.2293ZM5.03412 61.2268C4.32612 61.2268 3.75 60.6507 3.75 59.9427V6.22871C3.75 5.52071 4.32612 4.94446 5.03412 4.94446H46.4342C47.1423 4.94446 47.7184 5.52058 47.7184 6.22858V8.6492H11.4661C9.38 8.6492 7.682 10.3466 7.682 12.4333V61.2267L5.03412 61.2268ZM54.1504 66.1517C54.1504 66.8573 53.5742 67.4316 52.8662 67.4316H11.4661C10.7581 67.4316 10.182 66.8572 10.182 66.1517V12.4335C10.182 11.7255 10.7581 11.1493 11.4661 11.1493H52.8662C53.5742 11.1493 54.1504 11.7255 54.1504 12.4335V32.3548C50.7539 32.2635 47.3375 33.2243 44.4044 35.2203H35.4309C34.74 35.2203 34.1809 35.7801 34.1809 36.4703C34.1809 37.1606 34.74 37.7203 35.4309 37.7203H41.4997C40.1186 39.2272 39.0611 40.9305 38.3398 42.743H15.3722C14.6814 42.743 14.1222 43.3027 14.1222 43.993C14.1222 44.6832 14.6814 45.243 15.3722 45.243H37.5747C37.2052 46.8915 37.094 48.585 37.2331 50.2656H15.3724C14.6815 50.2656 14.1224 50.8253 14.1224 51.5156C14.1224 52.2058 14.6815 52.7656 15.3724 52.7656H37.6285C38.0481 54.5177 38.7479 56.2182 39.748 57.7876H15.3724C14.6815 57.7876 14.1224 58.3473 14.1224 59.0376C14.1224 59.7278 14.6815 60.2876 15.3724 60.2876H41.6929C44.7129 63.4733 48.785 65.3075 53.1764 65.4487C53.5051 65.4586 53.8211 65.4456 54.1505 65.4372C54.1504 65.6753 54.1504 65.9135 54.1504 66.1517ZM53.2569 62.9498C49.5033 62.829 46.0205 61.2543 43.4521 58.515C38.1481 52.8601 38.435 43.9446 44.0894 38.6407C46.7164 36.1773 50.1124 34.8363 53.6963 34.8363C53.85 34.8363 54.0039 34.8388 54.1589 34.8437C57.9125 34.9646 61.3952 36.5392 63.9636 39.2786C69.2676 44.9335 68.9808 53.849 63.3252 59.1528C60.5871 61.7225 57.0287 63.064 53.2569 62.9498ZM72.6904 75.0073L65.9081 66.3361L69.27 63.7061L76.051 72.3792L72.6904 75.0073Z" fill="url(#paint3_linear_2896_2676)"/>
<path d="M61.8947 41.2183C57.6601 36.7059 50.5459 36.4789 46.0341 40.711C41.5187 44.9414 41.2905 52.0587 45.5226 56.5759C47.7272 58.9258 50.7155 60.1135 53.7099 60.1135C56.4637 60.1135 59.2237 59.1095 61.3881 57.0825C65.8987 52.8497 66.1257 45.733 61.8947 41.2183ZM59.678 55.2588C56.1672 58.5504 50.6362 58.3722 47.3465 54.8663C44.0567 51.3549 44.2349 45.8233 47.7432 42.5348C49.423 40.9583 51.5677 40.1782 53.7076 40.1782C56.0342 40.1782 58.3572 41.1017 60.0711 42.9278C63.3596 46.4374 63.1826 51.9695 59.678 55.2588Z" fill="url(#paint4_linear_2896_2676)"/>
<path d="M60.3798 47.4054C59.5986 43.8221 56.0451 41.5448 52.4611 42.3254C51.7861 42.4726 51.3588 43.1384 51.5053 43.8128C51.6531 44.4867 52.3207 44.9127 52.9933 44.7681C55.2431 44.2811 57.4501 45.7037 57.9385 47.9388C58.0655 48.5236 58.583 48.9227 59.158 48.9221C59.2458 48.9221 59.3362 48.9129 59.4253 48.8934C60.1002 48.7463 60.5275 48.0798 60.3798 47.4054Z" fill="url(#paint5_linear_2896_2676)"/>
<defs>
<linearGradient id="paint0_linear_2896_2676" x1="14.125" y1="28.6615" x2="31.144" y2="28.6615" gradientUnits="userSpaceOnUse">
<stop stop-color="#991F3D"/>
<stop offset="1" stop-color="#E7474D"/>
</linearGradient>
<linearGradient id="paint1_linear_2896_2676" x1="34.1797" y1="21.4252" x2="50.5957" y2="21.4252" gradientUnits="userSpaceOnUse">
<stop stop-color="#991F3D"/>
<stop offset="1" stop-color="#E7474D"/>
</linearGradient>
<linearGradient id="paint2_linear_2896_2676" x1="34.1797" y1="28.9479" x2="50.5957" y2="28.9479" gradientUnits="userSpaceOnUse">
<stop stop-color="#991F3D"/>
<stop offset="1" stop-color="#E7474D"/>
</linearGradient>
<linearGradient id="paint3_linear_2896_2676" x1="1.25" y1="40.0751" x2="78.7494" y2="40.0751" gradientUnits="userSpaceOnUse">
<stop stop-color="#991F3D"/>
<stop offset="1" stop-color="#E7474D"/>
</linearGradient>
<linearGradient id="paint4_linear_2896_2676" x1="42.4922" y1="48.8966" x2="64.9253" y2="48.8966" gradientUnits="userSpaceOnUse">
<stop stop-color="#991F3D"/>
<stop offset="1" stop-color="#E7474D"/>
</linearGradient>
<linearGradient id="paint5_linear_2896_2676" x1="51.4766" y1="45.5471" x2="60.409" y2="45.5471" gradientUnits="userSpaceOnUse">
<stop stop-color="#991F3D"/>
<stop offset="1" stop-color="#E7474D"/>
</linearGradient>
</defs>
</svg>
