<svg xmlns="http://www.w3.org/2000/svg" width="42" height="43" viewBox="0 0 42 43" fill="none">
<path d="M33.0597 9.50783C30.6742 7.11977 27.634 5.49293 24.3237 4.83309C21.0134 4.17326 17.5818 4.5101 14.4629 5.80098C11.3441 7.09187 8.67825 9.27881 6.8026 12.0851C4.92694 14.8914 3.92578 18.191 3.92578 21.5664C3.92578 24.9419 4.92694 28.2414 6.8026 31.0478C8.67825 33.854 11.3441 36.0409 14.4629 37.3319C17.5818 38.6227 21.0134 38.9595 24.3237 38.2997C27.634 37.6399 30.6742 36.0131 33.0597 33.625C34.6441 32.042 35.901 30.1621 36.7586 28.0931C37.6162 26.0239 38.0576 23.8062 38.0576 21.5664C38.0576 19.3266 37.6162 17.1089 36.7586 15.0397C35.901 12.9707 34.6441 11.0909 33.0597 9.50783ZM26.9074 24.8477C26.9074 25.1957 26.7691 25.5296 26.5229 25.7757C26.2768 26.0218 25.9429 26.1602 25.5949 26.1602C25.2468 26.1602 24.9129 26.0218 24.6668 25.7757C24.4207 25.5296 24.2824 25.1957 24.2824 24.8477V20.1391L17.3425 27.0953C17.0888 27.3334 16.7553 27.4679 16.4074 27.4727C16.0589 27.4712 15.7242 27.3362 15.4722 27.0953C15.2257 26.8465 15.0875 26.5105 15.0875 26.1602C15.0875 25.81 15.2257 25.4739 15.4722 25.225L22.4284 18.2852H17.7199C17.3718 18.2852 17.0379 18.1468 16.7918 17.9007C16.5457 17.6546 16.4074 17.3207 16.4074 16.9727C16.4074 16.6246 16.5457 16.2907 16.7918 16.0446C17.0379 15.7985 17.3718 15.6602 17.7199 15.6602H25.5949C25.7639 15.6598 25.9312 15.6932 26.087 15.7586C26.4111 15.8897 26.6704 16.1432 26.8089 16.4641C26.8732 16.626 26.9066 16.7985 26.9074 16.9727V24.8477Z" fill="#e32636"/>
</svg>